<svg width="24" height="24" viewBox="0 0 24 24" fill="none" xmlns="http://www.w3.org/2000/svg">
  <path d="M18.1666 14.0657C17.4949 13.9267 16.9635 14.2267 16.493 14.4886C16.0111 14.7586 15.0949 15.4734 14.5697 15.2905C11.8808 14.2257 9.35189 11.9621 8.25714 9.36566C8.0642 8.84977 8.804 7.96295 9.08259 7.49404C9.35292 7.04014 9.65833 6.52424 9.51904 5.87337C9.39316 5.28849 7.76497 3.2959 7.18923 2.75101C6.80952 2.39108 6.42053 2.19312 6.02123 2.16113C4.51995 2.09914 2.84327 4.02575 2.54921 4.48666C1.8125 5.46946 1.81663 6.77719 2.56159 8.36287C4.35693 12.622 11.1472 19.0497 15.5922 20.8413C16.4125 21.2103 17.1626 21.3952 17.8364 21.3952C18.4957 21.3952 19.0828 21.2183 19.5874 20.8673C19.9681 20.6564 22.0534 18.9637 21.9987 17.481C21.9657 17.1031 21.7604 16.7252 21.391 16.3592C20.8286 15.8004 18.7702 14.1877 18.1666 14.0657" fill="white" />
</svg>